<svg width="157" height="157" viewBox="0 0 157 157" fill="none" xmlns="http://www.w3.org/2000/svg">
<rect width="157" height="157" fill="black"/>
<path d="M17.035 75.97C18.7217 75.97 19.95 75.4567 20.72 74.43C21.5267 73.3667 21.93 72.12 21.93 70.69V62.605C21.93 60.8817 22.095 59.36 22.425 58.04C22.755 56.6833 23.3417 55.565 24.185 54.685C25.0283 53.7683 26.2017 53.09 27.705 52.65C29.2083 52.1733 31.1333 51.935 33.48 51.935H33.865V57.215C32.8017 57.215 31.9033 57.2883 31.17 57.435C30.4367 57.5817 29.85 57.8567 29.41 58.26C28.97 58.6267 28.64 59.14 28.42 59.8C28.2367 60.4233 28.145 61.23 28.145 62.22V70.085C28.145 72.285 27.8517 74.045 27.265 75.365C26.715 76.6483 25.7617 77.7117 24.405 78.555C25.7617 79.3983 26.715 80.48 27.265 81.8C27.8517 83.12 28.145 84.8617 28.145 87.025V94.945C28.145 95.935 28.2367 96.7417 28.42 97.365C28.64 97.9883 28.97 98.4833 29.41 98.85C29.85 99.2533 30.4367 99.5283 31.17 99.675C31.9033 99.8217 32.8017 99.895 33.865 99.895V105.175C31.4083 105.175 29.41 104.955 27.87 104.515C26.33 104.075 25.12 103.397 24.24 102.48C23.36 101.6 22.755 100.5 22.425 99.18C22.095 97.86 21.93 96.32 21.93 94.56V86.42C21.93 85.0267 21.5267 83.8167 20.72 82.79C19.95 81.7267 18.7217 81.195 17.035 81.195V75.97ZM45.5611 90.215C47.3211 90.215 48.6044 90.0133 49.4111 89.61C50.2178 89.17 50.6211 88.4367 50.6211 87.41C50.6211 86.4567 50.1811 85.6683 49.3011 85.045C48.4578 84.4217 47.0461 83.7433 45.0661 83.01C43.8561 82.57 42.7378 82.1117 41.7111 81.635C40.7211 81.1217 39.8594 80.535 39.1261 79.875C38.3928 79.215 37.8061 78.4267 37.3661 77.51C36.9628 76.5567 36.7611 75.4017 36.7611 74.045C36.7611 71.405 37.7328 69.3333 39.6761 67.83C41.6194 66.29 44.2594 65.52 47.5961 65.52C49.2828 65.52 50.8961 65.685 52.4361 66.015C53.9761 66.3083 55.1311 66.6017 55.9011 66.895L54.6911 72.285C53.9578 71.955 53.0228 71.6617 51.8861 71.405C50.7494 71.1117 49.4294 70.965 47.9261 70.965C46.5694 70.965 45.4694 71.2033 44.6261 71.68C43.7828 72.12 43.3611 72.8167 43.3611 73.77C43.3611 74.2467 43.4344 74.6683 43.5811 75.035C43.7644 75.4017 44.0578 75.75 44.4611 76.08C44.8644 76.3733 45.3961 76.685 46.0561 77.015C46.7161 77.3083 47.5228 77.62 48.4761 77.95C50.0528 78.5367 51.3911 79.1233 52.4911 79.71C53.5911 80.26 54.4894 80.9017 55.1861 81.635C55.9194 82.3317 56.4511 83.1383 56.7811 84.055C57.1111 84.9717 57.2761 86.0717 57.2761 87.355C57.2761 90.105 56.2494 92.195 54.1961 93.625C52.1794 95.0183 49.2828 95.715 45.5061 95.715C42.9761 95.715 40.9411 95.495 39.4011 95.055C37.8611 94.6517 36.7794 94.3217 36.1561 94.065L37.3111 88.51C38.3011 88.9133 39.4744 89.2983 40.8311 89.665C42.2244 90.0317 43.8011 90.215 45.5611 90.215ZM61.8978 80.755C61.8978 78.225 62.2645 76.0067 62.9978 74.1C63.7678 72.1933 64.7761 70.6167 66.0228 69.37C67.2695 68.0867 68.6995 67.1333 70.3128 66.51C71.9261 65.85 73.5761 65.52 75.2628 65.52C79.2228 65.52 82.3028 66.7483 84.5028 69.205C86.7395 71.6617 87.8578 75.3283 87.8578 80.205C87.8578 80.5717 87.8395 80.9933 87.8028 81.47C87.8028 81.91 87.7845 82.3133 87.7478 82.68H68.7728C68.9561 84.99 69.7628 86.7867 71.1928 88.07C72.6595 89.3167 74.7678 89.94 77.5178 89.94C79.1311 89.94 80.5978 89.7933 81.9178 89.5C83.2745 89.2067 84.3378 88.895 85.1078 88.565L85.9878 94.01C85.6211 94.1933 85.1078 94.395 84.4478 94.615C83.8245 94.7983 83.0911 94.9633 82.2478 95.11C81.4411 95.2933 80.5611 95.44 79.6078 95.55C78.6545 95.66 77.6828 95.715 76.6928 95.715C74.1628 95.715 71.9628 95.3483 70.0928 94.615C68.2228 93.845 66.6828 92.8 65.4728 91.48C64.2628 90.1233 63.3645 88.5467 62.7778 86.75C62.1911 84.9167 61.8978 82.9183 61.8978 80.755ZM81.2028 77.785C81.2028 76.8683 81.0745 76.0067 80.8178 75.2C80.5611 74.3567 80.1761 73.6417 79.6628 73.055C79.1861 72.4317 78.5811 71.955 77.8478 71.625C77.1511 71.2583 76.3078 71.075 75.3178 71.075C74.2911 71.075 73.3928 71.2767 72.6228 71.68C71.8528 72.0467 71.1928 72.5417 70.6428 73.165C70.1295 73.7883 69.7261 74.5033 69.4328 75.31C69.1395 76.1167 68.9378 76.9417 68.8278 77.785H81.2028ZM120.929 80.59C120.929 82.8633 120.599 84.935 119.939 86.805C119.279 88.675 118.344 90.27 117.134 91.59C115.924 92.91 114.457 93.9367 112.734 94.67C111.047 95.4033 109.177 95.77 107.124 95.77C105.07 95.77 103.2 95.4033 101.514 94.67C99.827 93.9367 98.3787 92.91 97.1687 91.59C95.9587 90.27 95.0054 88.675 94.3087 86.805C93.6487 84.935 93.3187 82.8633 93.3187 80.59C93.3187 78.3167 93.6487 76.2633 94.3087 74.43C95.0054 72.56 95.9587 70.965 97.1687 69.645C98.4154 68.325 99.882 67.3167 101.569 66.62C103.255 65.8867 105.107 65.52 107.124 65.52C109.14 65.52 110.992 65.8867 112.679 66.62C114.402 67.3167 115.869 68.325 117.079 69.645C118.289 70.965 119.224 72.56 119.884 74.43C120.58 76.2633 120.929 78.3167 120.929 80.59ZM114.109 80.59C114.109 77.73 113.485 75.475 112.239 73.825C111.029 72.1383 109.324 71.295 107.124 71.295C104.924 71.295 103.2 72.1383 101.954 73.825C100.744 75.475 100.139 77.73 100.139 80.59C100.139 83.4867 100.744 85.7783 101.954 87.465C103.2 89.1517 104.924 89.995 107.124 89.995C109.324 89.995 111.029 89.1517 112.239 87.465C113.485 85.7783 114.109 83.4867 114.109 80.59ZM139.688 81.195C138.001 81.195 136.755 81.7267 135.948 82.79C135.178 83.8167 134.793 85.0267 134.793 86.42V94.56C134.793 96.32 134.628 97.86 134.298 99.18C133.968 100.5 133.363 101.6 132.483 102.48C131.603 103.397 130.393 104.075 128.853 104.515C127.313 104.955 125.315 105.175 122.858 105.175V99.895C124.985 99.895 126.47 99.5467 127.313 98.85C128.156 98.19 128.578 96.8883 128.578 94.945V87.025C128.578 84.8617 128.853 83.12 129.403 81.8C129.99 80.48 130.961 79.3983 132.318 78.555C130.961 77.7117 129.99 76.6483 129.403 75.365C128.853 74.045 128.578 72.285 128.578 70.085V62.22C128.578 61.23 128.468 60.4233 128.248 59.8C128.065 59.14 127.753 58.6267 127.313 58.26C126.873 57.8567 126.286 57.5817 125.553 57.435C124.82 57.2883 123.921 57.215 122.858 57.215V51.935H123.243C125.59 51.935 127.515 52.1733 129.018 52.65C130.521 53.09 131.695 53.7683 132.538 54.685C133.381 55.565 133.968 56.6833 134.298 58.04C134.628 59.36 134.793 60.8817 134.793 62.605V70.69C134.793 72.12 135.178 73.3667 135.948 74.43C136.755 75.4567 138.001 75.97 139.688 75.97V81.195Z" fill="#FDFDFD"/>
</svg>
